<svg width="13" height="13" viewBox="0 0 13 13" fill="none" xmlns="http://www.w3.org/2000/svg">
<path d="M11.93 3.60176L9.39764 1.06944C9.36265 1.03442 9.32109 1.00664 9.27535 0.98769C9.22962 0.968739 9.18059 0.958984 9.13108 0.958984C9.08158 0.958984 9.03255 0.968739 8.98682 0.98769C8.94108 1.00664 8.89952 1.03442 8.86452 1.06944L1.93382 8L1.94908 8.01526L1.92514 8.00882L0.977064 11.5469L0.977624 11.547C0.955358 11.6132 0.951973 11.6842 0.96785 11.7522C0.983727 11.8201 1.01824 11.8823 1.0675 11.9318C1.1221 11.9862 1.19213 12.0226 1.26809 12.0359C1.34406 12.0492 1.42227 12.0388 1.49212 12.0061L1.4924 12.0074L4.99618 11.0685L4.99394 11.0603L4.99926 11.0656L11.93 4.13488C11.965 4.09988 11.9928 4.05832 12.0117 4.01258C12.0307 3.96685 12.0404 3.91782 12.0404 3.86832C12.0404 3.81881 12.0307 3.76978 12.0117 3.72405C11.9928 3.67831 11.965 3.63675 11.93 3.60176ZM2.13024 10.8608L2.69332 8.7595L4.23164 10.2978L2.13024 10.8608Z" fill="white"/>
</svg>
